<svg xmlns="http://www.w3.org/2000/svg" xmlns:xlink="http://www.w3.org/1999/xlink" style="margin:auto;background:transparent;display:block;z-index:1;position:relative" width="1373" height="758" preserveAspectRatio="xMidYMid" viewBox="0 0 1373 758">
<g transform="translate(686.5,379) scale(1,1) translate(-686.5,-379)"><path id="path0" d="M 1307.4204951837228 340.74733459038754
c 0 26.257494256056937 -6.424706041375632 7.542046222484439 -13.966752263860071 7.542046222484439
S 1279.4869906560025 367.00482884644447 1279.4869906560025 340.74733459038754
s 6.424706041375632 -7.542046222484439 13.966752263860071 -7.542046222484439
S 1307.4204951837228 314.4898403343306 1307.4204951837228 340.74733459038754
z" fill="none" stroke="none"></path>
<circle cx="0" cy="0" r="17.864939971367814" fill="#ffffff" opacity="0.9">
  <animateMotion begin="-0.9683422151965635s" dur="1.63s" repeatCount="indefinite">
    <mpath xlink:href="#path0"></mpath>
  </animateMotion>
</circle><path id="path1" d="M 407.14848993219636 459.4342652708666
c 0 19.4340436216392 -4.755138332954273 5.582118912598494 -10.337257245552767 5.582118912598494
S 386.4739754410908 478.8683088925058 386.4739754410908 459.4342652708666
s 4.755138332954273 -5.582118912598494 10.337257245552767 -5.582118912598494
S 407.14848993219636 440.0002216492274 407.14848993219636 459.4342652708666
z" fill="none" stroke="none"></path>
<circle cx="0" cy="0" r="20.876505654524163" fill="#ffffff" opacity="0.9">
  <animateMotion begin="-1.2167302068694985s" dur="1.63s" repeatCount="indefinite">
    <mpath xlink:href="#path1"></mpath>
  </animateMotion>
</circle><path id="path2" d="M 229.06925189174385 468.4157052007224
c 0 19.900147320568234 -4.869184982692227 5.715999762290876 -10.585184744983103 5.715999762290876
S 207.89888240177763 488.31585252129065 207.89888240177763 468.4157052007224
s 4.869184982692227 -5.715999762290876 10.585184744983103 -5.715999762290876
S 229.06925189174385 448.5155578801542 229.06925189174385 468.4157052007224
z" fill="none" stroke="none"></path>
<circle cx="0" cy="0" r="19.18986416361878" fill="#ffffff" opacity="0.9">
  <animateMotion begin="-0.928021494866603s" dur="1.63s" repeatCount="indefinite">
    <mpath xlink:href="#path2"></mpath>
  </animateMotion>
</circle><path id="path3" d="M 572.8049438742738 96.52823018669268
c 0 36.1490767412732 -8.84498686222642 10.383245446961451 -19.22823230918787 10.383245446961451
S 534.348479255898 132.67730692796587 534.348479255898 96.52823018669268
s 8.84498686222642 -10.383245446961451 19.22823230918787 -10.383245446961451
S 572.8049438742738 60.37915344541948 572.8049438742738 96.52823018669268
z" fill="none" stroke="none"></path>
<circle cx="0" cy="0" r="15.11160312028253" fill="#ffffff" opacity="0.9">
  <animateMotion begin="-0.7796540263927217s" dur="1.63s" repeatCount="indefinite">
    <mpath xlink:href="#path3"></mpath>
  </animateMotion>
</circle><path id="path4" d="M 473.2683933706619 524.3729245488635
c 0 30.72033970728588 -7.516678864548672 8.823927362731052 -16.340606227279725 8.823927362731052
S 440.5871809161024 555.0932642561494 440.5871809161024 524.3729245488635
s 7.516678864548672 -8.823927362731052 16.340606227279725 -8.823927362731052
S 473.2683933706619 493.6525848415776 473.2683933706619 524.3729245488635
z" fill="none" stroke="none"></path>
<circle cx="0" cy="0" r="19.089051585790394" fill="#ffffff" opacity="0.9">
  <animateMotion begin="-1.0757794038289816s" dur="1.63s" repeatCount="indefinite">
    <mpath xlink:href="#path4"></mpath>
  </animateMotion>
</circle><path id="path5" d="M 770.2111713087619 479.52704219505654
c 0 24.499808751729866 -5.994634056274328 7.037179109539429 -13.031813165813757 7.037179109539429
S 744.1475449771343 504.0268509467864 744.1475449771343 479.52704219505654
s 5.994634056274328 -7.037179109539429 13.031813165813757 -7.037179109539429
S 770.2111713087619 455.0272334433267 770.2111713087619 479.52704219505654
z" fill="none" stroke="none"></path>
<circle cx="0" cy="0" r="14.155802935326362" fill="#ffffff" opacity="0.9">
  <animateMotion begin="-0.7698674169763011s" dur="1.63s" repeatCount="indefinite">
    <mpath xlink:href="#path5"></mpath>
  </animateMotion>
</circle><path id="path6" d="M 106.37684822711071 204.20485553497247
c 0 19.30573962350936 -4.723744801496971 5.5452656365399235 -10.269010438036894 5.5452656365399235
S 85.83882735103691 223.51059515848183 85.83882735103691 204.20485553497247
s 4.723744801496971 -5.5452656365399235 10.269010438036894 -5.5452656365399235
S 106.37684822711071 184.8991159114631 106.37684822711071 204.20485553497247
z" fill="none" stroke="none"></path>
<circle cx="0" cy="0" r="13.26531507642973" fill="#ffffff" opacity="0.9">
  <animateMotion begin="-1.1359194238857924s" dur="1.63s" repeatCount="indefinite">
    <mpath xlink:href="#path6"></mpath>
  </animateMotion>
</circle></g>
</svg>